<mxfile host="Electron" modified="2025-02-13T16:52:59.985Z" agent="Mozilla/5.0 (X11; Linux x86_64) AppleWebKit/537.36 (KHTML, like Gecko) draw.io/23.1.5 Chrome/120.0.6099.109 Electron/28.1.0 Safari/537.36" etag="KnVcl8zMHVyxBd-I-udU" version="23.1.5" type="device">
  <diagram name="Page-1" id="5f0bae14-7c28-e335-631c-24af17079c00">
    <mxGraphModel dx="1570" dy="2149" grid="1" gridSize="10" guides="1" tooltips="1" connect="1" arrows="1" fold="1" page="1" pageScale="1" pageWidth="827" pageHeight="1169" background="none" math="0" shadow="0">
      <root>
        <mxCell id="0" />
        <mxCell id="1" parent="0" />
        <mxCell id="UoGC4zfzY8rupysbHo7Q-235" value="" style="shape=folder;fontStyle=1;spacingTop=10;tabWidth=40;tabHeight=14;tabPosition=left;html=1;whiteSpace=wrap;fillColor=none;" parent="1" vertex="1">
          <mxGeometry x="610" y="126" width="420" height="304" as="geometry" />
        </mxCell>
        <mxCell id="UoGC4zfzY8rupysbHo7Q-231" value="" style="shape=folder;fontStyle=1;spacingTop=10;tabWidth=40;tabHeight=14;tabPosition=left;html=1;whiteSpace=wrap;fillColor=none;" parent="1" vertex="1">
          <mxGeometry x="220" y="128" width="320" height="172" as="geometry" />
        </mxCell>
        <mxCell id="UoGC4zfzY8rupysbHo7Q-232" value="" style="shape=folder;fontStyle=1;spacingTop=10;tabWidth=40;tabHeight=14;tabPosition=left;html=1;whiteSpace=wrap;fillColor=none;" parent="1" vertex="1">
          <mxGeometry x="40" y="346" width="150" height="194" as="geometry" />
        </mxCell>
        <mxCell id="UoGC4zfzY8rupysbHo7Q-233" value="" style="shape=folder;fontStyle=1;spacingTop=10;tabWidth=40;tabHeight=14;tabPosition=left;html=1;whiteSpace=wrap;fillColor=none;" parent="1" vertex="1">
          <mxGeometry x="40" y="560" width="150" height="104" as="geometry" />
        </mxCell>
        <mxCell id="UoGC4zfzY8rupysbHo7Q-76" style="edgeStyle=orthogonalEdgeStyle;rounded=0;orthogonalLoop=1;jettySize=auto;html=1;entryX=0;entryY=0.5;entryDx=0;entryDy=0;" parent="1" source="UoGC4zfzY8rupysbHo7Q-64" target="UoGC4zfzY8rupysbHo7Q-66" edge="1">
          <mxGeometry relative="1" as="geometry" />
        </mxCell>
        <mxCell id="UoGC4zfzY8rupysbHo7Q-77" style="edgeStyle=orthogonalEdgeStyle;rounded=0;orthogonalLoop=1;jettySize=auto;html=1;" parent="1" source="UoGC4zfzY8rupysbHo7Q-64" target="UoGC4zfzY8rupysbHo7Q-67" edge="1">
          <mxGeometry relative="1" as="geometry">
            <Array as="points">
              <mxPoint x="-680" y="111" />
              <mxPoint x="-680" y="251" />
            </Array>
          </mxGeometry>
        </mxCell>
        <mxCell id="UoGC4zfzY8rupysbHo7Q-78" style="edgeStyle=orthogonalEdgeStyle;rounded=0;orthogonalLoop=1;jettySize=auto;html=1;entryX=0;entryY=0.5;entryDx=0;entryDy=0;" parent="1" source="UoGC4zfzY8rupysbHo7Q-64" target="UoGC4zfzY8rupysbHo7Q-69" edge="1">
          <mxGeometry relative="1" as="geometry" />
        </mxCell>
        <mxCell id="UoGC4zfzY8rupysbHo7Q-79" style="edgeStyle=orthogonalEdgeStyle;rounded=0;orthogonalLoop=1;jettySize=auto;html=1;entryX=0;entryY=0.5;entryDx=0;entryDy=0;" parent="1" source="UoGC4zfzY8rupysbHo7Q-64" target="UoGC4zfzY8rupysbHo7Q-70" edge="1">
          <mxGeometry relative="1" as="geometry" />
        </mxCell>
        <mxCell id="UoGC4zfzY8rupysbHo7Q-86" style="edgeStyle=orthogonalEdgeStyle;rounded=0;orthogonalLoop=1;jettySize=auto;html=1;entryX=0;entryY=0.5;entryDx=0;entryDy=0;" parent="1" source="UoGC4zfzY8rupysbHo7Q-64" target="UoGC4zfzY8rupysbHo7Q-85" edge="1">
          <mxGeometry relative="1" as="geometry" />
        </mxCell>
        <mxCell id="UoGC4zfzY8rupysbHo7Q-64" value="Администратор" style="shape=umlActor;verticalLabelPosition=bottom;verticalAlign=top;html=1;outlineConnect=0;" parent="1" vertex="1">
          <mxGeometry x="-760" y="81" width="30" height="60" as="geometry" />
        </mxCell>
        <mxCell id="UoGC4zfzY8rupysbHo7Q-80" style="edgeStyle=orthogonalEdgeStyle;rounded=0;orthogonalLoop=1;jettySize=auto;html=1;" parent="1" source="UoGC4zfzY8rupysbHo7Q-65" target="UoGC4zfzY8rupysbHo7Q-73" edge="1">
          <mxGeometry relative="1" as="geometry" />
        </mxCell>
        <mxCell id="UoGC4zfzY8rupysbHo7Q-81" style="edgeStyle=orthogonalEdgeStyle;rounded=0;orthogonalLoop=1;jettySize=auto;html=1;entryX=1;entryY=0.5;entryDx=0;entryDy=0;" parent="1" source="UoGC4zfzY8rupysbHo7Q-65" target="UoGC4zfzY8rupysbHo7Q-72" edge="1">
          <mxGeometry relative="1" as="geometry" />
        </mxCell>
        <mxCell id="UoGC4zfzY8rupysbHo7Q-83" style="edgeStyle=orthogonalEdgeStyle;rounded=0;orthogonalLoop=1;jettySize=auto;html=1;entryX=1;entryY=0.5;entryDx=0;entryDy=0;" parent="1" source="UoGC4zfzY8rupysbHo7Q-65" target="UoGC4zfzY8rupysbHo7Q-82" edge="1">
          <mxGeometry relative="1" as="geometry" />
        </mxCell>
        <mxCell id="UoGC4zfzY8rupysbHo7Q-65" value="Студент" style="shape=umlActor;verticalLabelPosition=bottom;verticalAlign=top;html=1;outlineConnect=0;" parent="1" vertex="1">
          <mxGeometry x="-170" y="61" width="30" height="60" as="geometry" />
        </mxCell>
        <mxCell id="UoGC4zfzY8rupysbHo7Q-66" value="Добавление теста" style="ellipse;whiteSpace=wrap;html=1;" parent="1" vertex="1">
          <mxGeometry x="-630" y="58" width="140" height="70" as="geometry" />
        </mxCell>
        <mxCell id="UoGC4zfzY8rupysbHo7Q-67" value="Изменение настроек теста" style="ellipse;whiteSpace=wrap;html=1;" parent="1" vertex="1">
          <mxGeometry x="-630" y="216" width="140" height="70" as="geometry" />
        </mxCell>
        <mxCell id="UoGC4zfzY8rupysbHo7Q-69" value="Отчет об оценках" style="ellipse;whiteSpace=wrap;html=1;" parent="1" vertex="1">
          <mxGeometry x="-630" y="296" width="140" height="70" as="geometry" />
        </mxCell>
        <mxCell id="UoGC4zfzY8rupysbHo7Q-70" value="Отчет о конкретном решении" style="ellipse;whiteSpace=wrap;html=1;" parent="1" vertex="1">
          <mxGeometry x="-630" y="381" width="140" height="70" as="geometry" />
        </mxCell>
        <mxCell id="UoGC4zfzY8rupysbHo7Q-72" value="Просмотр решения" style="ellipse;whiteSpace=wrap;html=1;" parent="1" vertex="1">
          <mxGeometry x="-420" y="141" width="140" height="70" as="geometry" />
        </mxCell>
        <mxCell id="UoGC4zfzY8rupysbHo7Q-73" value="Просмотр оценок" style="ellipse;whiteSpace=wrap;html=1;" parent="1" vertex="1">
          <mxGeometry x="-420" y="56" width="140" height="70" as="geometry" />
        </mxCell>
        <mxCell id="UoGC4zfzY8rupysbHo7Q-82" value="Прохождение теста" style="ellipse;whiteSpace=wrap;html=1;" parent="1" vertex="1">
          <mxGeometry x="-420" y="231" width="140" height="70" as="geometry" />
        </mxCell>
        <mxCell id="UoGC4zfzY8rupysbHo7Q-84" value="Варианты использования" style="text;html=1;align=center;verticalAlign=middle;whiteSpace=wrap;rounded=0;" parent="1" vertex="1">
          <mxGeometry x="-680" y="10" width="500" height="30" as="geometry" />
        </mxCell>
        <mxCell id="UoGC4zfzY8rupysbHo7Q-85" value="Изменение вопросов теста" style="ellipse;whiteSpace=wrap;html=1;" parent="1" vertex="1">
          <mxGeometry x="-630" y="136" width="140" height="70" as="geometry" />
        </mxCell>
        <mxCell id="UoGC4zfzY8rupysbHo7Q-139" style="edgeStyle=orthogonalEdgeStyle;rounded=0;orthogonalLoop=1;jettySize=auto;html=1;strokeColor=default;align=center;verticalAlign=middle;fontFamily=Helvetica;fontSize=11;fontColor=default;labelBackgroundColor=default;endArrow=block;endFill=0;" parent="1" source="UoGC4zfzY8rupysbHo7Q-112" target="UoGC4zfzY8rupysbHo7Q-133" edge="1">
          <mxGeometry relative="1" as="geometry">
            <Array as="points">
              <mxPoint x="-515" y="567" />
            </Array>
          </mxGeometry>
        </mxCell>
        <mxCell id="UoGC4zfzY8rupysbHo7Q-112" value="Контроллер &lt;br&gt;экзамена&lt;br&gt;(ExamManager)" style="shape=component;align=left;spacingLeft=36;rounded=0;shadow=0;comic=0;labelBackgroundColor=none;strokeWidth=1;fontFamily=Verdana;fontSize=12;html=1;" parent="1" vertex="1">
          <mxGeometry x="-565" y="560" width="160" height="60" as="geometry" />
        </mxCell>
        <mxCell id="UoGC4zfzY8rupysbHo7Q-128" style="edgeStyle=orthogonalEdgeStyle;rounded=0;orthogonalLoop=1;jettySize=auto;html=1;endArrow=block;endFill=0;" parent="1" source="UoGC4zfzY8rupysbHo7Q-113" target="UoGC4zfzY8rupysbHo7Q-112" edge="1">
          <mxGeometry relative="1" as="geometry" />
        </mxCell>
        <mxCell id="UoGC4zfzY8rupysbHo7Q-113" value="Сетевое &lt;br&gt;взаимодействие&lt;br&gt;(Network)" style="shape=component;align=left;spacingLeft=36;rounded=0;shadow=0;comic=0;labelBackgroundColor=none;strokeWidth=1;fontFamily=Verdana;fontSize=12;html=1;" parent="1" vertex="1">
          <mxGeometry x="-755" y="560" width="160" height="60" as="geometry" />
        </mxCell>
        <mxCell id="UoGC4zfzY8rupysbHo7Q-121" value="Генератор &lt;br&gt;отчетов&lt;br&gt;(Reporter)" style="shape=component;align=left;spacingLeft=36;rounded=0;shadow=0;comic=0;labelBackgroundColor=none;strokeWidth=1;fontFamily=Verdana;fontSize=12;html=1;" parent="1" vertex="1">
          <mxGeometry x="-350" y="762" width="160" height="60" as="geometry" />
        </mxCell>
        <mxCell id="UoGC4zfzY8rupysbHo7Q-136" style="edgeStyle=orthogonalEdgeStyle;rounded=0;orthogonalLoop=1;jettySize=auto;html=1;entryX=0.75;entryY=1;entryDx=0;entryDy=0;strokeColor=default;align=center;verticalAlign=middle;fontFamily=Helvetica;fontSize=11;fontColor=default;labelBackgroundColor=default;endArrow=block;endFill=0;exitX=0.5;exitY=0;exitDx=0;exitDy=0;" parent="1" source="UoGC4zfzY8rupysbHo7Q-123" target="UoGC4zfzY8rupysbHo7Q-133" edge="1">
          <mxGeometry relative="1" as="geometry">
            <Array as="points">
              <mxPoint x="-675" y="740" />
              <mxPoint x="-240" y="740" />
            </Array>
          </mxGeometry>
        </mxCell>
        <mxCell id="UoGC4zfzY8rupysbHo7Q-138" style="edgeStyle=orthogonalEdgeStyle;rounded=0;orthogonalLoop=1;jettySize=auto;html=1;entryX=0.096;entryY=0.453;entryDx=0;entryDy=0;strokeColor=default;align=center;verticalAlign=middle;fontFamily=Helvetica;fontSize=11;fontColor=default;labelBackgroundColor=default;endArrow=block;endFill=0;entryPerimeter=0;" parent="1" source="UoGC4zfzY8rupysbHo7Q-123" target="UoGC4zfzY8rupysbHo7Q-121" edge="1">
          <mxGeometry relative="1" as="geometry">
            <Array as="points" />
          </mxGeometry>
        </mxCell>
        <mxCell id="UoGC4zfzY8rupysbHo7Q-123" value="База данных &lt;br&gt;результатов&lt;br&gt;(Database)" style="shape=component;align=left;spacingLeft=36;rounded=0;shadow=0;comic=0;labelBackgroundColor=none;strokeWidth=1;fontFamily=Verdana;fontSize=12;html=1;" parent="1" vertex="1">
          <mxGeometry x="-755" y="760" width="160" height="60" as="geometry" />
        </mxCell>
        <mxCell id="UoGC4zfzY8rupysbHo7Q-133" value="Экзаменатор&amp;nbsp;&lt;br&gt;(Examiner)" style="shape=component;align=left;spacingLeft=36;rounded=0;shadow=0;comic=0;labelBackgroundColor=none;strokeWidth=1;fontFamily=Verdana;fontSize=12;html=1;" parent="1" vertex="1">
          <mxGeometry x="-360" y="560" width="160" height="60" as="geometry" />
        </mxCell>
        <mxCell id="UoGC4zfzY8rupysbHo7Q-135" style="edgeStyle=orthogonalEdgeStyle;rounded=0;orthogonalLoop=1;jettySize=auto;html=1;strokeColor=default;align=center;verticalAlign=middle;fontFamily=Helvetica;fontSize=11;fontColor=default;labelBackgroundColor=default;endArrow=block;endFill=0;" parent="1" source="UoGC4zfzY8rupysbHo7Q-134" target="UoGC4zfzY8rupysbHo7Q-133" edge="1">
          <mxGeometry relative="1" as="geometry" />
        </mxCell>
        <mxCell id="UoGC4zfzY8rupysbHo7Q-134" value="Параметры тестов&lt;br&gt;(Configuration)" style="shape=component;align=left;spacingLeft=36;rounded=0;shadow=0;comic=0;labelBackgroundColor=none;strokeWidth=1;fontFamily=Verdana;fontSize=12;html=1;" parent="1" vertex="1">
          <mxGeometry x="-755" y="660" width="160" height="60" as="geometry" />
        </mxCell>
        <mxCell id="UoGC4zfzY8rupysbHo7Q-164" style="edgeStyle=orthogonalEdgeStyle;rounded=0;orthogonalLoop=1;jettySize=auto;html=1;endArrow=block;endFill=0;" parent="1" source="UoGC4zfzY8rupysbHo7Q-198" target="UoGC4zfzY8rupysbHo7Q-199" edge="1">
          <mxGeometry relative="1" as="geometry">
            <mxPoint x="360" y="227.9999999999999" as="sourcePoint" />
            <mxPoint x="390" y="228.0344827586207" as="targetPoint" />
          </mxGeometry>
        </mxCell>
        <mxCell id="UoGC4zfzY8rupysbHo7Q-178" style="edgeStyle=orthogonalEdgeStyle;rounded=0;orthogonalLoop=1;jettySize=auto;html=1;exitX=0;exitY=0.5;exitDx=0;exitDy=0;" parent="1" source="UoGC4zfzY8rupysbHo7Q-179" target="UoGC4zfzY8rupysbHo7Q-177" edge="1">
          <mxGeometry relative="1" as="geometry">
            <mxPoint x="850" y="489.0344827586207" as="sourcePoint" />
          </mxGeometry>
        </mxCell>
        <mxCell id="UoGC4zfzY8rupysbHo7Q-167" style="edgeStyle=orthogonalEdgeStyle;rounded=0;orthogonalLoop=1;jettySize=auto;html=1;strokeColor=default;align=center;verticalAlign=middle;fontFamily=Helvetica;fontSize=11;fontColor=default;labelBackgroundColor=default;endArrow=block;endFill=0;exitX=1;exitY=0.25;exitDx=0;exitDy=0;" parent="1" source="UoGC4zfzY8rupysbHo7Q-184" target="UoGC4zfzY8rupysbHo7Q-185" edge="1">
          <mxGeometry relative="1" as="geometry">
            <Array as="points">
              <mxPoint x="170" y="600" />
              <mxPoint x="580" y="600" />
              <mxPoint x="580" y="385" />
            </Array>
            <mxPoint x="280" y="413" as="sourcePoint" />
          </mxGeometry>
        </mxCell>
        <mxCell id="UoGC4zfzY8rupysbHo7Q-168" style="edgeStyle=orthogonalEdgeStyle;rounded=0;orthogonalLoop=1;jettySize=auto;html=1;strokeColor=default;align=center;verticalAlign=middle;fontFamily=Helvetica;fontSize=11;fontColor=default;labelBackgroundColor=default;endArrow=block;endFill=0;exitX=1;exitY=0.75;exitDx=0;exitDy=0;" parent="1" source="UoGC4zfzY8rupysbHo7Q-184" target="UoGC4zfzY8rupysbHo7Q-177" edge="1">
          <mxGeometry relative="1" as="geometry">
            <Array as="points">
              <mxPoint x="170" y="630" />
              <mxPoint x="685" y="630" />
            </Array>
            <mxPoint x="360" y="443" as="sourcePoint" />
          </mxGeometry>
        </mxCell>
        <mxCell id="UoGC4zfzY8rupysbHo7Q-171" style="edgeStyle=orthogonalEdgeStyle;rounded=0;orthogonalLoop=1;jettySize=auto;html=1;strokeColor=default;align=center;verticalAlign=middle;fontFamily=Helvetica;fontSize=11;fontColor=default;labelBackgroundColor=default;endArrow=block;endFill=0;exitX=0.994;exitY=0.421;exitDx=0;exitDy=0;exitPerimeter=0;" parent="1" source="UoGC4zfzY8rupysbHo7Q-197" target="UoGC4zfzY8rupysbHo7Q-186" edge="1">
          <mxGeometry relative="1" as="geometry">
            <mxPoint x="360" y="327.9999999999999" as="sourcePoint" />
            <Array as="points">
              <mxPoint x="169" y="400" />
              <mxPoint x="570" y="400" />
              <mxPoint x="570" y="305" />
            </Array>
          </mxGeometry>
        </mxCell>
        <mxCell id="UoGC4zfzY8rupysbHo7Q-177" value="«interface»&lt;br&gt;&lt;b&gt;Statistic&lt;/b&gt;" style="html=1;whiteSpace=wrap;" parent="1" vertex="1">
          <mxGeometry x="630" y="481" width="110" height="50" as="geometry" />
        </mxCell>
        <mxCell id="UoGC4zfzY8rupysbHo7Q-182" style="edgeStyle=orthogonalEdgeStyle;rounded=0;orthogonalLoop=1;jettySize=auto;html=1;" parent="1" source="UoGC4zfzY8rupysbHo7Q-179" target="UoGC4zfzY8rupysbHo7Q-180" edge="1">
          <mxGeometry relative="1" as="geometry" />
        </mxCell>
        <mxCell id="UoGC4zfzY8rupysbHo7Q-183" style="edgeStyle=orthogonalEdgeStyle;rounded=0;orthogonalLoop=1;jettySize=auto;html=1;" parent="1" source="UoGC4zfzY8rupysbHo7Q-179" target="UoGC4zfzY8rupysbHo7Q-181" edge="1">
          <mxGeometry relative="1" as="geometry" />
        </mxCell>
        <mxCell id="UoGC4zfzY8rupysbHo7Q-179" value="Reporter" style="html=1;whiteSpace=wrap;" parent="1" vertex="1">
          <mxGeometry x="830" y="481" width="110" height="50" as="geometry" />
        </mxCell>
        <mxCell id="UoGC4zfzY8rupysbHo7Q-180" value="MakeCSV" style="html=1;whiteSpace=wrap;" parent="1" vertex="1">
          <mxGeometry x="760" y="602" width="110" height="50" as="geometry" />
        </mxCell>
        <mxCell id="UoGC4zfzY8rupysbHo7Q-181" value="MakeMarkdown" style="html=1;whiteSpace=wrap;" parent="1" vertex="1">
          <mxGeometry x="900" y="602" width="110" height="50" as="geometry" />
        </mxCell>
        <mxCell id="UoGC4zfzY8rupysbHo7Q-184" value="SQLiteDatabase" style="html=1;whiteSpace=wrap;" parent="1" vertex="1">
          <mxGeometry x="60" y="593.5" width="110" height="50" as="geometry" />
        </mxCell>
        <mxCell id="UoGC4zfzY8rupysbHo7Q-185" value="«interface»&lt;br&gt;&lt;b&gt;Database&lt;/b&gt;" style="html=1;whiteSpace=wrap;" parent="1" vertex="1">
          <mxGeometry x="640" y="360" width="110" height="50" as="geometry" />
        </mxCell>
        <mxCell id="UoGC4zfzY8rupysbHo7Q-186" value="«interface»&lt;br&gt;&lt;b&gt;Config&lt;/b&gt;" style="html=1;whiteSpace=wrap;" parent="1" vertex="1">
          <mxGeometry x="640" y="280" width="110" height="50" as="geometry" />
        </mxCell>
        <mxCell id="UoGC4zfzY8rupysbHo7Q-191" style="edgeStyle=orthogonalEdgeStyle;rounded=0;orthogonalLoop=1;jettySize=auto;html=1;entryX=1;entryY=0.5;entryDx=0;entryDy=0;" parent="1" target="UoGC4zfzY8rupysbHo7Q-185" edge="1">
          <mxGeometry relative="1" as="geometry">
            <Array as="points">
              <mxPoint x="895" y="385" />
            </Array>
            <mxPoint x="895" y="330" as="sourcePoint" />
          </mxGeometry>
        </mxCell>
        <mxCell id="UoGC4zfzY8rupysbHo7Q-192" style="edgeStyle=orthogonalEdgeStyle;rounded=0;orthogonalLoop=1;jettySize=auto;html=1;" parent="1" source="UoGC4zfzY8rupysbHo7Q-190" target="UoGC4zfzY8rupysbHo7Q-186" edge="1">
          <mxGeometry relative="1" as="geometry" />
        </mxCell>
        <mxCell id="UoGC4zfzY8rupysbHo7Q-194" style="edgeStyle=orthogonalEdgeStyle;rounded=0;orthogonalLoop=1;jettySize=auto;html=1;exitX=1;exitY=0.5;exitDx=0;exitDy=0;" parent="1" source="UoGC4zfzY8rupysbHo7Q-196" target="UoGC4zfzY8rupysbHo7Q-190" edge="1">
          <mxGeometry relative="1" as="geometry">
            <Array as="points" />
            <mxPoint x="750" y="225" as="targetPoint" />
          </mxGeometry>
        </mxCell>
        <mxCell id="UoGC4zfzY8rupysbHo7Q-190" value="Examiner" style="html=1;whiteSpace=wrap;" parent="1" vertex="1">
          <mxGeometry x="840" y="280" width="110" height="50" as="geometry" />
        </mxCell>
        <mxCell id="UoGC4zfzY8rupysbHo7Q-204" style="edgeStyle=orthogonalEdgeStyle;rounded=0;orthogonalLoop=1;jettySize=auto;html=1;" parent="1" source="UoGC4zfzY8rupysbHo7Q-196" target="UoGC4zfzY8rupysbHo7Q-199" edge="1">
          <mxGeometry relative="1" as="geometry" />
        </mxCell>
        <mxCell id="UoGC4zfzY8rupysbHo7Q-196" value="ExamManager" style="html=1;whiteSpace=wrap;" parent="1" vertex="1">
          <mxGeometry x="400" y="200" width="110" height="50" as="geometry" />
        </mxCell>
        <mxCell id="UoGC4zfzY8rupysbHo7Q-210" style="edgeStyle=orthogonalEdgeStyle;rounded=0;orthogonalLoop=1;jettySize=auto;html=1;" parent="1" source="UoGC4zfzY8rupysbHo7Q-197" target="UoGC4zfzY8rupysbHo7Q-209" edge="1">
          <mxGeometry relative="1" as="geometry" />
        </mxCell>
        <mxCell id="UoGC4zfzY8rupysbHo7Q-197" value="TomlConfig" style="html=1;whiteSpace=wrap;" parent="1" vertex="1">
          <mxGeometry x="60" y="380" width="110" height="50" as="geometry" />
        </mxCell>
        <mxCell id="UoGC4zfzY8rupysbHo7Q-198" value="SocketServer" style="html=1;whiteSpace=wrap;" parent="1" vertex="1">
          <mxGeometry x="60" y="200" width="110" height="50" as="geometry" />
        </mxCell>
        <mxCell id="UoGC4zfzY8rupysbHo7Q-199" value="«interface»&lt;br&gt;&lt;b&gt;Server&lt;/b&gt;" style="html=1;whiteSpace=wrap;" parent="1" vertex="1">
          <mxGeometry x="250" y="200" width="110" height="50" as="geometry" />
        </mxCell>
        <mxCell id="UoGC4zfzY8rupysbHo7Q-209" value="ParseTests" style="html=1;whiteSpace=wrap;" parent="1" vertex="1">
          <mxGeometry x="60" y="470" width="110" height="50" as="geometry" />
        </mxCell>
        <mxCell id="UoGC4zfzY8rupysbHo7Q-228" value="Компоненты системы тестирования" style="text;html=1;align=center;verticalAlign=middle;whiteSpace=wrap;rounded=0;" parent="1" vertex="1">
          <mxGeometry x="-730" y="500" width="500" height="30" as="geometry" />
        </mxCell>
        <mxCell id="UoGC4zfzY8rupysbHo7Q-229" value="Архитектура системы тестирования" style="text;html=1;align=center;verticalAlign=middle;whiteSpace=wrap;rounded=0;" parent="1" vertex="1">
          <mxGeometry x="40" y="91" width="1000" height="30" as="geometry" />
        </mxCell>
        <mxCell id="UoGC4zfzY8rupysbHo7Q-230" value="" style="shape=folder;fontStyle=1;spacingTop=10;tabWidth=40;tabHeight=14;tabPosition=left;html=1;whiteSpace=wrap;fillColor=none;" parent="1" vertex="1">
          <mxGeometry x="40" y="126" width="150" height="174" as="geometry" />
        </mxCell>
        <mxCell id="UoGC4zfzY8rupysbHo7Q-234" value="" style="shape=folder;fontStyle=1;spacingTop=10;tabWidth=40;tabHeight=14;tabPosition=left;html=1;whiteSpace=wrap;fillColor=none;" parent="1" vertex="1">
          <mxGeometry x="610" y="451" width="420" height="220" as="geometry" />
        </mxCell>
      </root>
    </mxGraphModel>
  </diagram>
</mxfile>
